# xmcd
# Track frame offsets:
# 150
# 12306
# 26100
# 42570
# 53908
# 68312
# 78460
# 94481
# 115607
# 128219
# 139495
# 152721
# 164722
# 179771
# 191025
# 210100
# 223346
# 237748
# 250009
# 264922
# 278281
# 290412
# 305048
# 315806
# 328797
#
# Disc length: 4594 seconds
# Revision: 1
# Processed by: cddbd v1.5.2PL0 Copyright (c) Steve Scherf et al.
# Submitted via: VisiTrax 2.11.3.279 - For more info visit www.synapsa.com
#
DISCID=7411f019
DTITLE=Slim Dusty - I've Been There (And Back Again)
DYEAR=2011
DGENRE=Australian Country
TTITLE0=Slim Dusty - I've Been There (And Back Again)
TTITLE1=Slim Dusty - The Biggest Disappointment
TTITLE2=Joy McKean - Wind Up Gramophone
TTITLE3=Slim Dusty - Song For The Aussies
TTITLE4=Slim Dusty - Lace-Up Shoes
TTITLE5=Slim Dusty - D Towards The Head
TTITLE6=Slim Dusty - Yellow Gully
TTITLE7=Anne Kirkpatrick - Local Mary Magdalene
TTITLE8=The McKean Sisters - Valley where The Frangipanis Grow
TTITLE9=Slim Dusty and Joy McKean - Our Wedding Waltz
TTITLE10=Slim Dusty - Bible Of The Bush
TTITLE11=Slim Dusty - When The Rain Tumbles Down In July
TTITLE12=Slim Dusty - Kelly's Offsider
TTITLE13=Slim Dusty - Ringer From The Top End
TTITLE14=Slim Dusty - Grandfather Johnson
TTITLE15=Slim Dusty - Gumtrees By The Roadway
TTITLE16=Slim Dusty - Plains Of Peppimenarti
TTITLE17=Slim Dusty - Old Time Country Halls
TTITLE18=Slim Dusty - The Front Row
TTITLE19=Slim Dusty - Lights On The Hill
TTITLE20=Slim Dusty - On The Move
TTITLE21=Slim Dusty - Indian Pacific
TTITLE22=Slim Dusty - Country Revival
TTITLE23=Slim Dusty - Walk A Country Mile
TTITLE24=Anne Kirkpatrick - Travellin' Still...Always Will
EXTD=2011 EMI Music Australia
EXTT0=
EXTT1=
EXTT2=
EXTT3=
EXTT4=
EXTT5=
EXTT6=
EXTT7=
EXTT8=
EXTT9=
EXTT10=
EXTT11=
EXTT12=
EXTT13=
EXTT14=
EXTT15=
EXTT16=
EXTT17=
EXTT18=
EXTT19=
EXTT20=
EXTT21=
EXTT22=
EXTT23=
EXTT24=
PLAYORDER=
